<svg width="372" height="244" viewBox="0 0 372 244" fill="none" xmlns="http://www.w3.org/2000/svg">
<path d="M162.229 95V95.1282L162.216 95.2557L159.044 126.107C158.331 133.048 163.437 139.229 170.388 139.838L236.716 145.646C239.881 145.924 242.911 147.057 245.48 148.925L278.948 173.258C288.663 180.32 300.321 167.435 292.323 158.474C286.403 151.839 290.538 141.291 299.391 140.448L301.68 140.23C309.269 139.508 314.181 131.871 311.689 124.666L304.783 104.699C304.147 102.859 303.822 100.926 303.822 98.9794L303.822 65.56C303.822 58.8013 298.45 53.2667 291.694 53.0655L174.422 49.5732C173.058 49.5326 171.697 49.7281 170.4 50.151C165.527 51.7395 162.229 56.2833 162.229 61.409L162.229 95Z" stroke="#162850" stroke-width="5"/>
<path d="M151 7.5H151.122L151.244 7.48807L186.585 4.02328C193.689 3.32682 199.932 8.71041 200.289 15.8394L203.285 75.7572C203.619 82.4492 198.618 88.2148 191.946 88.8288L129.071 94.6148C125.793 94.9165 122.667 96.1366 120.051 98.1352L89.7385 121.294C80.3603 128.459 68.6045 116.079 76.2441 107.084C81.8466 100.486 77.7409 90.3116 69.1287 89.4504L65.3425 89.0718C58.2596 88.3635 53.1971 81.892 54.2147 74.8468L62.7998 15.4121C63.7965 8.51189 70.2453 3.76072 77.131 4.85367L92.4396 7.28362C93.347 7.42765 94.2643 7.5 95.1831 7.5H151Z" stroke="#162850" stroke-width="5"/>
</svg>
