<svg width="172" height="127" viewBox="0 0 172 127" fill="none" xmlns="http://www.w3.org/2000/svg">
<path d="M166 67V67.0735L166.004 67.1468L168.823 115.062C169.092 119.638 165.23 123.382 160.665 122.973L133.223 120.51L133.077 120.497L132.931 120.501L16.0912 123.734C12.0503 123.845 8.64788 120.735 8.39812 116.7L2.70519 24.7374C2.60308 23.0878 3.0487 21.4506 3.97282 20.0804L13.5995 5.80643C14.9936 3.73919 17.324 2.5 19.8175 2.5H37.5694C39.6855 2.5 41.7031 3.39394 43.1248 4.96139L56.8206 20.0619C59.0809 22.5541 62.2504 24.0298 65.6126 24.1555L158.78 27.6384C162.81 27.7891 166 31.1 166 35.1332V67Z" stroke="#162850" stroke-width="5"/>
</svg>
