<svg id="visual" viewBox="0 0 900 600" width="900" height="600" xmlns="http://www.w3.org/2000/svg" xmlns:xlink="http://www.w3.org/1999/xlink" version="1.1"><g transform="translate(438.882673525803 307.455545756068)"><path d="M70 -82.8C94.7 -62.8 121.2 -44.4 125.9 -21.6C130.5 1.1 113.3 28.3 94.9 49.6C76.4 70.8 56.7 86.2 33.5 96.6C10.3 107.1 -16.4 112.8 -36.1 103.7C-55.8 94.6 -68.5 70.7 -81.3 47.5C-94.2 24.2 -107.2 1.5 -103.9 -18.6C-100.7 -38.6 -81.2 -56.1 -61.2 -76.9C-41.1 -97.7 -20.6 -121.8 1.1 -123.1C22.7 -124.4 45.4 -102.8 70 -82.8" fill="#C2DAE1"></path></g></svg>