<svg id="visual" viewBox="0 0 900 600" width="900" height="600" xmlns="http://www.w3.org/2000/svg" xmlns:xlink="http://www.w3.org/1999/xlink" version="1.1"><g transform="translate(437.14812894985795 312.38110917637187)"><path d="M83.8 -101.6C106.8 -80.6 122.3 -52.5 127.8 -22.4C133.2 7.6 128.5 39.6 112.8 63.7C97.2 87.8 70.5 104 44.5 106.8C18.5 109.6 -6.8 98.8 -33.7 90.1C-60.6 81.4 -89.2 74.7 -99.5 57.3C-109.7 39.8 -101.6 11.7 -92.6 -12.3C-83.6 -36.3 -73.6 -56.1 -58 -78.3C-42.4 -100.6 -21.2 -125.3 4.6 -130.8C30.4 -136.3 60.9 -122.5 83.8 -101.6" fill="#C2DAE1"></path></g></svg>