<svg width="19" height="18" viewBox="0 0 19 18" fill="none" xmlns="http://www.w3.org/2000/svg">
<path d="M0.730127 5.74023C0.730127 2.97881 2.9687 0.740234 5.73013 0.740234H13.2982C16.0596 0.740234 18.2982 2.97881 18.2982 5.74023V8.03436C18.2982 10.6102 16.3412 12.7646 13.7772 13.0114L11.5309 13.2276C10.2375 13.352 9.04332 13.9752 8.20141 14.9649L6.4397 17.0359C6.3322 17.1623 6.21069 17.276 6.07751 17.375L5.93195 17.4831C4.74106 18.3678 3.24494 16.869 4.13179 15.6797C4.9003 14.6491 4.30518 13.1706 3.037 12.9597L2.72546 12.9079C1.57416 12.7165 0.730127 11.7206 0.730127 10.5535V5.74023Z" fill="#F6F7FF"/>
</svg>
