<svg width="26" height="28" viewBox="0 0 26 28" fill="none" xmlns="http://www.w3.org/2000/svg">
<g filter="url(#filter0_d_344_69)">
<rect x="4.2207" y="4.04248" width="17.2298" height="2.19811" rx="0.5" fill="#E05959"/>
<path d="M5.57031 4.58091C5.57031 4.28355 5.81138 4.04248 6.10874 4.04248H13.1084H17.9543C18.2516 4.04248 18.4927 4.28354 18.4927 4.58091V16.4293C18.4927 18.0861 17.1495 19.4293 15.4927 19.4293H8.57031C6.91346 19.4293 5.57031 18.0861 5.57031 16.4293V4.58091Z" fill="#E05959"/>
<rect x="9.60352" y="0.745117" width="6.46119" height="2.19811" rx="0.5" fill="#E05959"/>
<rect x="8.52734" y="8.43848" width="2.15373" height="5.49528" rx="0.5" fill="#526F8A"/>
<rect x="11.7578" y="8.43848" width="2.15373" height="5.49528" rx="0.5" fill="#526F8A"/>
<rect x="14.9883" y="8.43848" width="2.15373" height="5.49528" rx="0.5" fill="#526F8A"/>
</g>
<defs>
<filter id="filter0_d_344_69" x="0.220703" y="0.745117" width="25.2305" height="26.6841" filterUnits="userSpaceOnUse" color-interpolation-filters="sRGB">
<feFlood flood-opacity="0" result="BackgroundImageFix"/>
<feColorMatrix in="SourceAlpha" type="matrix" values="0 0 0 0 0 0 0 0 0 0 0 0 0 0 0 0 0 0 127 0" result="hardAlpha"/>
<feOffset dy="4"/>
<feGaussianBlur stdDeviation="2"/>
<feComposite in2="hardAlpha" operator="out"/>
<feColorMatrix type="matrix" values="0 0 0 0 0 0 0 0 0 0 0 0 0 0 0 0 0 0 0.25 0"/>
<feBlend mode="normal" in2="BackgroundImageFix" result="effect1_dropShadow_344_69"/>
<feBlend mode="normal" in="SourceGraphic" in2="effect1_dropShadow_344_69" result="shape"/>
</filter>
</defs>
</svg>
